# xmcd
#
# Track frame offsets:
#	150
#	18884
#	44281
#	66573
#	88792
#	113984
#	134503
#	153097
#	175811
#	197840
#	219377
#	244774
#	268708
#
# Disc length: 3894 seconds
#
# Revision: 2
# Processed by: cddbd v1.4b41PL1 Copyright (c) Steve Scherf et al.
# Submitted via: EZCDDA 4.3.2
#
DISCID=b80f340d
DTITLE=Gerald Levert - G.
DYEAR=1900
DGENRE=
TTITLE0=Application ( I'm looking 4 a new love)
TTITLE1=Callin Me
TTITLE2=Nothin To Somethin
TTITLE3=Strings, Strings
TTITLE4=It Hurts Too Much to Stay
TTITLE5=Mr. Too Damn Good
TTITLE6=She Done Been
TTITLE7=Heart Don't 
TTITLE8=Don't Take It Away
TTITLE9=Second Time Around
TTITLE10=Misery
TTITLE11=Baby U Are
TTITLE12=These
EXTD=
EXTT0=
EXTT1=
EXTT2=
EXTT3=
EXTT4=
EXTT5=
EXTT6=
EXTT7=
EXTT8=
EXTT9=
EXTT10=
EXTT11=
EXTT12=
PLAYORDER=
